<svg xmlns="http://www.w3.org/2000/svg" version="1.0" width="200.000000" height="200.000000" preserveAspectRatio="xMidYMid meet"><rect id="backgroundrect" width="100%" height="100%" x="0" y="0" fill="none" stroke="none"/>


<g class="currentLayer" style=""><title>Layer 1</title><g transform="translate(0,200) scale(0.10000000149011612,-0.10000000149011612) " fill="#009900" stroke="none" id="svg_1" class="selected" fill-opacity="1">
<path d="M1270 1725 l0 -175 175 0 175 0 0 175 0 175 -175 0 -175 0 0 -175z m273 115 c15 0 17 -12 17 -115 l0 -115 -120 0 -120 0 0 113 c0 63 3 117 8 121 4 5 50 5 102 2 52 -3 103 -6 113 -6z" id="svg_2" fill="#009900" fill-opacity="1"/>
<path d="M1390 1725 l0 -55 55 0 55 0 0 55 0 55 -55 0 -55 0 0 -55z" id="svg_3" fill="#009900" fill-opacity="1"/>
<path d="M380 1715 l0 -175 175 0 175 0 0 175 0 175 -175 0 -175 0 0 -175z m300 0 l0 -115 -120 0 -120 0 0 115 0 115 120 0 120 0 0 -115z" id="svg_4" fill="#009900" fill-opacity="1"/>
<path d="M500 1715 l0 -55 55 0 55 0 0 55 0 55 -55 0 -55 0 0 -55z" id="svg_5" fill="#009900" fill-opacity="1"/>
<path d="M910 1855 c0 -24 3 -25 60 -25 57 0 60 1 60 25 0 24 -3 25 -60 25 -57 0 -60 -1 -60 -25z" id="svg_6" fill="#009900" fill-opacity="1"/>
<path d="M1050 1770 c0 -25 4 -30 25 -30 21 0 25 5 25 30 0 25 -4 30 -25 30 -21 0 -25 -5 -25 -30z" id="svg_7" fill="#009900" fill-opacity="1"/>
<path d="M840 1700 l0 -90 55 0 c54 0 55 0 55 30 0 27 -3 30 -30 30 l-30 0 0 60 c0 57 -1 60 -25 60 -25 0 -25 -1 -25 -90z" id="svg_8" fill="#009900" fill-opacity="1"/>
<path d="M1170 1735 c0 -21 5 -25 30 -25 25 0 30 4 30 25 0 21 -5 25 -30 25 -25 0 -30 -4 -30 -25z" id="svg_9" fill="#009900" fill-opacity="1"/>
<path d="M990 1710 c0 -25 4 -30 25 -30 21 0 25 5 25 30 0 25 -4 30 -25 30 -21 0 -25 -5 -25 -30z" id="svg_10" fill="#009900" fill-opacity="1"/>
<path d="M1140 1610 c0 -27 3 -30 30 -30 27 0 30 3 30 30 0 27 -3 30 -30 30 -27 0 -30 -3 -30 -30z" id="svg_11" fill="#009900" fill-opacity="1"/>
<path d="M910 1540 c0 -27 3 -30 30 -30 27 0 30 3 30 30 0 27 -3 30 -30 30 -27 0 -30 -3 -30 -30z" id="svg_12" fill="#009900" fill-opacity="1"/>
<path d="M1030 1505 c0 -40 -18 -85 -35 -85 -20 0 -25 12 -14 32 17 31 3 32 -49 5 -45 -24 -50 -24 -65 -10 -13 14 -19 14 -32 3 -14 -12 -14 -15 1 -31 15 -17 14 -22 -10 -70 -14 -29 -24 -54 -22 -57 2 -2 14 1 25 8 22 11 41 6 41 -11 0 -17 -72 -41 -102 -35 -26 5 -28 3 -28 -24 0 -28 2 -30 40 -30 41 0 90 -17 90 -32 0 -15 -28 -20 -49 -8 -27 14 -26 10 5 -52 18 -36 22 -54 15 -61 -15 -15 -14 -47 2 -47 7 0 18 5 25 12 9 9 23 6 62 -12 54 -25 68 -23 51 9 -17 30 8 40 31 11 11 -14 18 -38 18 -66 0 -40 2 -44 24 -44 21 0 24 5 28 51 6 56 30 91 50 71 8 -8 8 -15 -2 -27 -22 -27 -2 -29 50 -5 47 22 51 22 68 6 17 -15 20 -15 32 -1 11 13 10 19 -5 35 -16 18 -16 21 3 52 11 18 23 44 27 56 6 22 5 23 -15 12 -12 -6 -29 -9 -38 -5 -31 12 24 45 74 45 41 0 44 2 44 28 0 25 -3 27 -42 27 -49 0 -91 24 -79 44 7 10 13 11 31 1 34 -18 35 -6 6 51 -25 47 -26 52 -11 69 14 16 14 18 0 30 -13 11 -19 11 -32 -2 -14 -14 -20 -14 -64 10 -53 27 -67 25 -50 -7 8 -14 8 -22 0 -27 -21 -12 -43 25 -44 71 0 42 -2 45 -27 45 -25 0 -28 -4 -28 -35z m200 -110 c17 -20 5 -62 -21 -70 -24 -8 -59 19 -59 45 0 37 55 55 80 25z m-282 -7 c15 -15 15 -51 0 -66 -18 -18 -56 -14 -68 7 -14 27 -13 37 6 55 18 19 45 21 62 4z m210 -64 c15 -11 22 -25 22 -50 0 -69 -78 -101 -119 -48 -27 34 -27 62 1 91 25 27 64 30 96 7z m-127 -123 c36 -36 37 -70 3 -110 -51 -61 -144 -28 -144 50 0 83 83 118 141 60z m160 -51 c22 -12 26 -59 7 -78 -19 -19 -66 -15 -78 7 -14 27 -13 47 6 65 18 19 38 20 65 6z" id="svg_13" fill="#009900" fill-opacity="1"/>
<path d="M910 1349 c0 -5 5 -7 10 -4 6 3 10 8 10 11 0 2 -4 4 -10 4 -5 0 -10 -5 -10 -11z" id="svg_14" fill="#009900" fill-opacity="1"/>
<path d="M1084 1286 c-10 -26 4 -48 28 -44 17 2 23 10 23 28 0 18 -6 26 -23 28 -13 2 -25 -3 -28 -12z" id="svg_15" fill="#009900" fill-opacity="1"/>
<path d="M948 1179 c-21 -12 -24 -49 -6 -67 19 -19 45 -14 62 10 13 19 14 25 2 43 -16 24 -35 28 -58 14z" id="svg_16" fill="#009900" fill-opacity="1"/>
<path d="M1152 1109 c2 -6 8 -10 13 -10 5 0 11 4 13 10 2 6 -4 11 -13 11 -9 0 -15 -5 -13 -11z" id="svg_17" fill="#009900" fill-opacity="1"/>
<path d="M1460 1465 c0 -25 1 -25 80 -25 79 0 80 0 80 25 0 25 -1 25 -80 25 -79 0 -80 0 -80 -25z" id="svg_18" fill="#009900" fill-opacity="1"/>
<path d="M380 1450 c0 -27 3 -30 30 -30 27 0 30 3 30 30 0 27 -3 30 -30 30 -27 0 -30 -3 -30 -30z" id="svg_19" fill="#009900" fill-opacity="1"/>
<path d="M530 1400 l0 -30 85 0 85 0 0 30 0 30 -85 0 -85 0 0 -30z" id="svg_20" fill="#009900" fill-opacity="1"/>
<path d="M1340 1405 c0 -20 5 -25 25 -25 20 0 25 5 25 25 0 20 -5 25 -25 25 -20 0 -25 -5 -25 -25z" id="svg_21" fill="#009900" fill-opacity="1"/>
<path d="M737 1393 c-4 -3 -7 -17 -7 -30 0 -19 5 -23 30 -23 27 0 30 3 30 30 0 25 -4 30 -23 30 -13 0 -27 -3 -30 -7z" id="svg_22" fill="#009900" fill-opacity="1"/>
<path d="M1467 1383 c-4 -3 -7 -17 -7 -30 0 -18 5 -23 25 -23 21 0 25 5 25 30 0 22 -5 30 -18 30 -10 0 -22 -3 -25 -7z" id="svg_23" fill="#009900" fill-opacity="1"/>
<path d="M1540 1271 l0 -71 30 0 31 0 -3 68 c-3 65 -4 67 -30 70 l-28 3 0 -70z" id="svg_24" fill="#009900" fill-opacity="1"/>
<path d="M510 1300 c0 -25 4 -30 25 -30 21 0 25 5 25 30 0 25 -4 30 -25 30 -21 0 -25 -5 -25 -30z" id="svg_25" fill="#009900" fill-opacity="1"/>
<path d="M412 1223 c3 -24 8 -28 33 -28 25 0 30 4 33 28 3 25 1 27 -33 27 -34 0 -36 -2 -33 -27z" id="svg_26" fill="#009900" fill-opacity="1"/>
<path d="M520 1200 l0 -30 60 0 60 0 0 30 0 30 -60 0 -60 0 0 -30z" id="svg_27" fill="#009900" fill-opacity="1"/>
<path d="M520 1080 l0 -70 30 0 30 0 0 70 0 70 -30 0 -30 0 0 -70z" id="svg_28" fill="#009900" fill-opacity="1"/>
<path d="M387 1123 c-4 -3 -7 -30 -7 -60 l0 -53 51 0 c49 0 50 1 47 28 -2 19 -9 28 -25 30 -18 3 -23 10 -23 33 0 21 -5 29 -18 29 -10 0 -22 -3 -25 -7z" id="svg_29" fill="#009900" fill-opacity="1"/>
<path d="M1533 1100 c-4 -15 -14 -20 -39 -20 l-34 0 0 -55 c0 -42 3 -55 15 -55 8 0 15 7 15 15 0 8 9 15 20 15 11 0 20 -7 20 -15 0 -8 9 -15 20 -15 16 0 20 7 20 35 0 28 4 35 20 35 13 0 20 7 20 20 0 13 -7 20 -20 20 -13 0 -20 7 -20 20 0 12 -7 20 -16 20 -9 0 -18 -9 -21 -20z" id="svg_30" fill="#009900" fill-opacity="1"/>
<path d="M690 1085 c0 -20 5 -25 25 -25 20 0 25 5 25 25 0 20 -5 25 -25 25 -20 0 -25 -5 -25 -25z" id="svg_31" fill="#009900" fill-opacity="1"/>
<path d="M1340 1080 c0 -25 4 -30 25 -30 21 0 25 5 25 30 0 25 -4 30 -25 30 -21 0 -25 -5 -25 -30z" id="svg_32" fill="#009900" fill-opacity="1"/>
<path d="M380 785 l0 -175 175 0 175 0 0 175 0 175 -175 0 -175 0 0 -175z m298 3 l3 -118 -121 0 -120 0 0 120 0 121 118 -3 117 -3 3 -117z" id="svg_33" fill="#009900" fill-opacity="1"/>
<path d="M500 785 l0 -55 55 0 55 0 0 55 0 55 -55 0 -55 0 0 -55z" id="svg_34" fill="#009900" fill-opacity="1"/>
<path d="M850 880 l0 -60 30 0 30 0 0 60 0 60 -30 0 -30 0 0 -60z" id="svg_35" fill="#009900" fill-opacity="1"/>
<path d="M1180 900 c0 -25 4 -30 25 -30 21 0 25 5 25 30 0 25 -4 30 -25 30 -21 0 -25 -5 -25 -30z" id="svg_36" fill="#009900" fill-opacity="1"/>
<path d="M1460 896 c0 -16 7 -27 20 -31 27 -9 40 1 40 31 0 20 -5 24 -30 24 -25 0 -30 -4 -30 -24z" id="svg_37" fill="#009900" fill-opacity="1"/>
<path d="M1330 870 c0 -27 -3 -30 -30 -30 -27 0 -30 -3 -30 -31 0 -27 3 -30 28 -27 21 2 28 9 30 30 3 21 9 27 30 30 21 2 28 9 30 31 3 24 0 27 -27 27 -28 0 -31 -3 -31 -30z" id="svg_38" fill="#009900" fill-opacity="1"/>
<path d="M1560 840 c0 -27 -3 -30 -31 -30 -27 0 -30 -3 -27 -27 3 -27 6 -28 61 -31 l57 -3 0 61 0 60 -30 0 c-27 0 -30 -3 -30 -30z" id="svg_39" fill="#009900" fill-opacity="1"/>
<path d="M1390 780 c0 -25 4 -30 25 -30 21 0 25 5 25 30 0 25 -4 30 -25 30 -21 0 -25 -5 -25 -30z" id="svg_40" fill="#009900" fill-opacity="1"/>
<path d="M890 775 c0 -21 -5 -25 -30 -25 l-30 0 0 -60 0 -60 30 0 c27 0 30 3 30 30 0 25 4 30 24 30 19 0 25 6 28 28 3 26 6 27 61 30 53 3 57 5 57 27 0 25 -1 25 -85 25 -84 0 -85 0 -85 -25z" id="svg_41" fill="#009900" fill-opacity="1"/>
<path d="M1080 710 l0 -60 60 0 60 0 0 30 c0 27 -3 30 -30 30 -27 0 -30 3 -30 30 0 27 -3 30 -30 30 l-30 0 0 -60z" id="svg_42" fill="#009900" fill-opacity="1"/>
<path d="M1240 695 c0 -52 1 -55 25 -55 24 0 25 3 25 55 0 52 -1 55 -25 55 -24 0 -25 -3 -25 -55z" id="svg_43" fill="#009900" fill-opacity="1"/>
<path d="M1500 665 c0 -24 3 -25 60 -25 57 0 60 1 60 25 0 24 -3 25 -60 25 -57 0 -60 -1 -60 -25z" id="svg_44" fill="#009900" fill-opacity="1"/>
<path d="M0 340 l0 -150 110 0 110 0 0 25 c0 24 -2 25 -75 25 l-75 0 0 40 0 40 60 0 c57 0 60 1 60 25 0 24 -3 25 -60 25 l-60 0 0 35 0 35 70 0 c68 0 70 1 70 25 l0 25 -105 0 -105 0 0 -150z" id="svg_45" fill="#009900" fill-opacity="1"/>
<path d="M1090 335 l0 -156 33 3 c31 3 32 4 35 56 l3 52 43 0 c28 0 55 8 77 23 30 20 34 28 37 73 2 43 -1 53 -23 74 -23 22 -37 25 -116 28 l-89 4 0 -157z m150 87 c40 -32 3 -82 -61 -82 -16 0 -19 7 -19 50 0 48 1 50 29 50 16 0 39 -8 51 -18z" id="svg_46" fill="#009900" fill-opacity="1"/>
<path d="M289 413 c-11 -3 -15 -11 -12 -24 4 -15 14 -19 47 -19 42 0 66 -13 66 -37 0 -9 -15 -13 -48 -13 -82 0 -119 -64 -67 -115 25 -26 75 -32 145 -19 l32 7 -4 89 c-3 84 -5 91 -31 114 -27 23 -80 30 -128 17z m99 -161 c3 -32 2 -33 -29 -30 -43 4 -62 34 -34 54 33 24 60 14 63 -24z" id="svg_47" fill="#009900" fill-opacity="1"/>
<path d="M536 399 c-31 -24 -35 -68 -8 -92 10 -9 34 -23 55 -32 20 -8 37 -20 37 -25 0 -18 -36 -29 -72 -21 -33 8 -37 6 -41 -15 -5 -28 8 -34 73 -34 111 0 130 105 25 140 -24 8 -35 18 -35 31 0 16 7 19 45 19 37 0 45 3 45 19 0 37 -82 43 -124 10z" id="svg_48" fill="#009900" fill-opacity="1"/>
<path d="M1384 414 c-6 -3 -9 -15 -7 -27 4 -19 10 -22 44 -19 41 4 69 -10 69 -35 0 -10 -6 -12 -20 -8 -10 3 -37 1 -59 -5 -64 -17 -81 -71 -36 -115 20 -21 34 -25 84 -25 92 0 91 -1 91 102 0 81 -2 91 -25 113 -20 21 -34 25 -77 24 -29 0 -58 -3 -64 -5z m106 -159 c0 -22 -4 -25 -34 -25 -38 0 -49 10 -40 34 4 10 18 16 40 16 30 0 34 -3 34 -25z" id="svg_49" fill="#009900" fill-opacity="1"/>
<path d="M1630 400 c-20 -20 -26 -65 -12 -87 4 -6 27 -22 52 -35 24 -12 42 -27 40 -33 -3 -5 -26 -10 -52 -10 -39 1 -48 -3 -52 -19 -7 -28 10 -36 77 -36 66 0 97 22 97 68 0 33 -20 54 -73 76 -49 20 -44 41 9 41 28 0 41 5 47 18 11 30 0 37 -59 37 -41 0 -59 -5 -74 -20z" id="svg_50" fill="#009900" fill-opacity="1"/>
<path d="M1852 404 c-19 -13 -22 -24 -20 -57 3 -39 6 -44 51 -66 65 -32 64 -55 -3 -49 -42 4 -51 2 -55 -13 -10 -31 4 -39 71 -39 51 0 68 4 84 20 40 40 20 92 -47 121 -55 23 -53 44 5 43 34 0 41 3 45 22 2 13 2 26 -1 29 -12 12 -109 4 -130 -11z" id="svg_51" fill="#009900" fill-opacity="1"/>
<path d="M710 405 c0 -4 19 -54 42 -112 46 -117 45 -136 -11 -141 -27 -3 -32 -7 -29 -25 5 -33 57 -35 95 -3 28 23 99 178 118 259 7 25 5 27 -22 27 -28 0 -30 -4 -51 -76 -13 -44 -27 -73 -32 -68 -4 5 -17 38 -28 74 -18 60 -22 65 -51 68 -17 2 -31 0 -31 -3z" id="svg_52" fill="#009900" fill-opacity="1"/>
</g></g></svg>